<?xml version="1.0" standalone="no"?>
<!DOCTYPE svg PUBLIC "-//W3C//DTD SVG 20010904//EN"
 "http://www.w3.org/TR/2001/REC-SVG-20010904/DTD/svg10.dtd">
<svg version="1.0" xmlns="http://www.w3.org/2000/svg"
 width="700.000000pt" height="700.000000pt" viewBox="0 0 700.000000 700.000000"
 preserveAspectRatio="xMidYMid meet">
<metadata>
Created by potrace 1.11, written by Peter Selinger 2001-2013
</metadata>
<g transform="translate(0.000000,700.000000) scale(0.100000,-0.100000)"
fill="#000000" stroke="none">
<path d="M686 6371 c-4 -5 3 -7 14 -4 11 3 20 1 20 -5 0 -5 -6 -10 -12 -9 -7
0 -29 -1 -48 -2 -27 -1 -31 -4 -20 -11 12 -8 9 -10 -13 -10 -20 0 -30 -6 -34
-20 -3 -11 -9 -17 -14 -14 -5 3 -9 -2 -9 -10 0 -9 -6 -15 -12 -13 -7 1 -14 -8
-16 -20 -2 -14 -8 -20 -17 -17 -10 4 -13 0 -10 -15 2 -11 -3 -24 -10 -29 -8
-4 -16 -22 -18 -40 -2 -18 -7 -35 -12 -40 -5 -4 -5 -2 -1 5 3 6 2 14 -3 18 -7
4 -11 -181 -11 -526 0 -293 -3 -535 -6 -538 -10 -10 -158 -8 -171 2 -9 6 -13
6 -13 -2 0 -7 -21 -11 -52 -12 -29 0 -47 -3 -40 -6 19 -8 14 -23 -9 -23 -11 0
-32 -9 -46 -20 -14 -11 -22 -20 -17 -20 4 0 -1 -7 -12 -15 -10 -8 -15 -15 -9
-15 5 0 -1 -7 -13 -16 -13 -9 -21 -21 -19 -27 2 -7 -2 -16 -9 -22 -8 -6 -15
-34 -16 -67 -1 -32 -5 -58 -9 -58 -4 0 -6 11 -5 24 2 14 0 30 -4 36 -3 6 -6
-30 -6 -79 1 -49 4 -87 8 -85 4 3 5 13 3 24 -2 11 0 20 5 20 5 0 9 -10 8 -22
0 -13 0 -63 1 -111 1 -67 4 -87 13 -81 10 6 10 4 0 -7 -17 -18 -15 -32 3 -25
8 3 15 1 15 -4 0 -6 -7 -10 -15 -10 -8 0 -15 -5 -15 -11 0 -6 6 -9 13 -6 9 3
12 -22 12 -107 1 -75 5 -111 12 -111 6 0 15 -4 20 -9 5 -5 3 -6 -4 -2 -12 6
-15 0 -12 -20 0 -4 -5 -11 -13 -16 -9 -7 -7 -8 7 -4 19 5 20 1 21 -82 2 -132
3 -134 17 -126 8 5 8 2 -2 -9 -9 -11 -10 -17 -2 -17 7 0 11 -24 11 -68 0 -41
5 -73 13 -81 9 -11 9 -13 0 -7 -9 5 -13 -1 -13 -19 0 -18 4 -24 12 -19 9 5 9
2 -1 -9 -11 -14 -11 -17 0 -17 11 0 11 -2 -1 -10 -13 -8 -12 -10 3 -10 22 0
22 -17 -1 -23 -15 -4 -14 -5 2 -6 20 -1 20 -1 0 -16 -10 -9 -13 -14 -5 -13 7
2 16 -3 19 -11 3 -9 0 -11 -8 -6 -9 6 -10 3 -2 -11 5 -11 9 -45 8 -77 -1 -35
3 -56 9 -53 5 2 9 9 7 15 -1 7 2 9 8 6 8 -5 7 -12 -2 -23 -18 -21 -17 -40 2
-52 12 -8 12 -10 1 -10 -9 0 -10 -4 -4 -12 5 -7 9 -43 9 -80 -1 -38 3 -68 7
-68 5 0 6 -4 3 -9 -4 -5 0 -12 6 -14 10 -4 10 -6 1 -6 -7 -1 -13 -10 -13 -22
0 -11 5 -17 10 -14 6 4 10 -30 10 -93 0 -77 3 -101 14 -105 15 -6 16 -31 1
-44 -4 -4 -5 -2 0 6 5 9 4 12 -3 7 -17 -10 -15 -26 4 -26 10 0 15 -8 14 -22
-1 -13 -2 -58 -1 -100 1 -69 3 -77 19 -71 16 7 16 6 0 -11 -20 -20 -23 -36 -7
-36 5 0 7 5 3 12 -4 7 -3 8 5 4 8 -6 9 -12 2 -20 -7 -9 -7 -17 2 -26 10 -10 9
-11 -3 -5 -13 8 -13 7 -1 -8 9 -12 10 -17 2 -17 -7 0 -9 -5 -4 -12 4 -7 8 -31
9 -53 1 -28 5 -39 15 -37 8 1 6 -4 -5 -13 -18 -14 -15 -19 9 -16 6 1 1 -6 -9
-14 -20 -15 -20 -15 0 -15 14 0 16 -2 5 -9 -8 -5 -9 -10 -3 -12 6 -3 12 -58
14 -137 2 -74 6 -136 10 -138 3 -2 5 7 4 20 -2 14 0 30 4 36 4 6 7 -13 8 -42
1 -163 4 -193 21 -206 15 -13 15 -13 -1 -9 -11 4 -15 1 -13 -11 2 -9 4 -21 4
-25 1 -5 5 -6 10 -3 10 7 9 -20 -1 -30 -4 -3 -3 -16 1 -28 4 -11 7 -45 7 -74
-1 -48 4 -57 28 -53 5 1 4 -5 -4 -13 -7 -9 -9 -16 -5 -16 4 0 1 -8 -6 -17 -10
-11 -10 -14 -2 -9 13 7 14 4 17 -129 0 -27 5 -53 9 -56 5 -4 10 -26 12 -50 2
-24 1 -36 -2 -26 -2 9 -9 17 -15 17 -6 0 -3 -11 6 -25 12 -19 17 -49 17 -120
0 -78 3 -95 15 -95 8 0 12 -5 9 -10 -4 -6 -12 -8 -18 -4 -7 3 -5 0 3 -8 11 -9
15 -30 15 -73 -1 -33 2 -71 7 -85 5 -14 9 -27 8 -29 -1 -2 4 -8 12 -13 10 -7
9 -8 -4 -6 -9 2 -16 -1 -15 -7 1 -5 5 -9 9 -8 7 3 11 -26 11 -79 0 -10 3 -15
7 -13 5 3 13 -9 19 -25 5 -17 7 -30 3 -30 -4 0 1 -5 10 -11 9 -5 15 -16 12
-24 -4 -10 0 -13 16 -10 18 3 20 2 10 -10 -10 -12 -9 -15 3 -15 8 0 20 -13 27
-30 8 -19 20 -30 32 -30 10 0 16 -4 13 -10 -3 -5 3 -10 14 -10 12 0 21 -6 21
-14 0 -8 9 -12 25 -11 16 2 25 -2 25 -11 0 -8 6 -15 13 -15 6 -1 1278 -2 2825
-3 2688 -1 2814 0 2823 17 6 10 14 15 19 12 12 -8 41 6 34 16 -3 5 2 10 10 10
30 3 34 4 43 13 5 6 2 6 -7 1 -13 -8 -13 -7 -1 9 10 12 16 13 21 6 5 -7 9 -3
13 10 4 15 10 19 19 14 10 -6 9 -3 -1 10 -8 9 -10 16 -5 15 23 -4 33 2 27 18
-4 11 -3 14 5 9 8 -5 12 0 12 14 0 12 5 18 10 15 10 -6 15 13 12 47 -1 12 3
15 16 11 9 -3 14 -3 10 2 -4 4 -3 14 3 22 9 10 8 13 -2 13 -9 0 -10 3 -3 8 14
9 26 42 15 42 -4 0 -6 12 -3 27 l6 28 6 -25 c5 -21 13 82 11 163 0 11 5 15 12
10 8 -4 8 -1 -1 9 -9 11 -10 18 -2 23 7 4 7 12 0 25 -7 13 -7 21 2 26 7 5 8 3
3 -6 -6 -9 -4 -11 5 -5 10 6 9 11 -5 22 -16 11 -14 17 5 15 3 0 6 8 6 18 0 10
-4 16 -9 13 -5 -3 -5 3 0 13 5 11 9 40 9 67 -1 26 3 47 8 47 5 0 3 7 -4 15
-15 18 1 20 19 2 10 -10 11 -9 6 6 -4 9 -12 17 -17 17 -6 0 -8 6 -5 14 3 7 1
18 -4 23 -6 6 -4 10 5 10 8 0 13 -4 10 -9 -3 -4 0 -8 5 -8 14 0 14 13 -1 28
-9 9 -9 12 3 13 9 0 6 4 -6 9 -16 7 -17 9 -3 9 13 1 16 9 13 38 -2 21 1 46 7
56 5 11 6 17 1 14 -5 -3 -8 4 -7 16 1 12 3 26 3 30 1 5 4 6 9 4 4 -3 8 8 9 24
1 16 -2 27 -7 24 -5 -3 -12 0 -16 6 -4 7 -3 9 4 5 17 -11 21 5 24 117 1 59 6
107 11 107 5 0 6 -9 2 -19 -3 -11 -1 -22 5 -26 6 -4 11 -1 9 6 -1 8 -1 58 0
112 1 75 4 97 14 91 9 -6 9 -4 -1 7 -14 16 -16 33 -2 24 6 -3 10 -1 10 4 0 6
-6 11 -12 11 -10 0 -9 3 1 9 11 7 11 9 0 14 -10 4 -8 6 4 6 10 1 15 6 12 11
-4 6 -12 8 -18 4 -7 -3 -3 2 7 10 11 9 14 16 7 16 -7 0 -9 5 -4 13 4 6 8 35 8
62 1 38 4 49 15 47 10 -1 8 3 -4 13 -11 8 -14 15 -8 15 7 0 11 3 11 8 -1 4 0
9 1 12 7 19 7 41 -1 46 -5 3 -9 11 -9 17 0 7 4 6 10 -3 7 -10 10 9 10 63 0 46
4 76 9 72 5 -3 13 -1 16 5 4 6 1 9 -7 8 -9 -2 -13 11 -13 45 0 27 2 50 6 53 4
2 5 -10 4 -26 -1 -17 1 -30 6 -30 4 0 8 10 7 23 -3 76 3 197 10 193 5 -3 9 1
9 9 0 8 -3 12 -7 10 -3 -2 -6 12 -6 30 0 18 3 32 7 29 4 -2 9 8 12 22 3 20 1
24 -12 20 -14 -5 -14 -5 0 6 9 8 15 27 14 51 -1 20 3 37 9 37 7 0 8 3 1 8 -13
9 -15 51 -2 49 5 -1 12 4 14 11 3 8 -2 10 -14 6 -11 -4 -14 -3 -7 3 6 4 10 16
9 25 -2 10 2 16 7 15 6 -1 12 12 13 30 1 18 -2 30 -7 27 -4 -3 -4 5 1 18 4 13
7 31 6 41 -2 9 2 17 8 17 7 0 5 5 -3 10 -13 9 -13 10 0 10 13 0 13 1 0 10 -12
8 -12 10 5 10 15 0 17 2 6 9 -8 5 -9 11 -3 15 10 6 8 43 -3 54 -2 3 -1 10 4
16 6 7 11 51 12 99 3 74 6 87 19 82 11 -4 10 -1 -3 9 -14 10 -15 15 -5 19 11
5 11 7 0 15 -11 8 -11 10 0 14 9 4 13 27 13 79 0 58 4 78 18 92 17 17 15 43
-4 32 -5 -4 -9 3 -9 14 0 12 6 21 13 21 9 0 12 17 12 58 -1 31 3 65 8 76 5 10
5 16 0 13 -10 -7 -9 51 2 61 5 4 5 1 1 -5 -4 -7 -3 -13 3 -13 5 0 9 9 8 19 0
11 -4 18 -7 16 -4 -2 -7 2 -7 10 0 8 4 12 9 9 4 -3 8 31 8 75 0 54 4 81 13 84
10 4 10 6 0 6 -7 1 -13 6 -13 12 0 5 4 8 8 5 5 -3 9 1 9 9 0 8 -3 12 -7 10 -3
-2 -6 5 -6 16 0 10 4 19 8 19 4 0 8 5 8 11 0 5 -6 7 -12 4 -7 -4 -6 -1 2 7 10
8 15 31 15 63 0 28 4 56 10 64 8 12 7 13 -5 6 -13 -8 -13 -7 -1 9 9 11 11 20
5 24 -12 9 -12 28 0 39 5 4 6 3 2 -4 -3 -6 -3 -14 1 -16 5 -3 8 29 9 71 0 43
-1 71 -4 64 -2 -6 -7 -12 -11 -12 -9 0 -8 31 3 48 4 6 2 12 -3 12 -6 0 -10 3
-10 8 4 21 -2 32 -13 26 -8 -5 -7 0 2 11 9 11 10 16 3 11 -9 -5 -13 1 -13 18
0 17 -5 26 -16 26 -10 0 -14 6 -10 15 3 9 0 15 -8 15 -8 0 -16 7 -20 15 -3 8
-13 15 -21 15 -9 0 -13 5 -10 10 5 8 -22 15 -47 11 -4 0 -5 6 -2 14 5 12 -3
15 -40 15 -37 0 -46 3 -46 18 -1 15 -2 15 -10 2 -6 -12 -27 -16 -86 -15 -95 0
-90 -12 -89 218 0 105 -4 167 -10 167 -5 0 -3 5 5 10 12 8 12 10 -5 10 -17 0
-17 2 -5 10 10 6 11 10 3 10 -7 0 -13 11 -13 25 0 13 -8 29 -17 34 -13 7 -14
10 -4 11 10 0 7 6 -7 19 -12 10 -22 22 -22 27 0 12 -43 49 -52 46 -5 -1 -8 3
-8 9 0 19 -44 48 -75 49 -26 1 -27 3 -10 10 22 9 -27 13 -138 11 -45 -1 -57 2
-51 11 6 10 4 11 -7 1 -7 -7 -37 -13 -67 -13 -40 0 -51 3 -46 13 6 9 4 9 -7 1
-20 -17 -122 -17 -113 -1 5 9 4 9 -7 0 -7 -7 -37 -13 -67 -13 -40 0 -51 3 -46
13 6 9 4 9 -7 1 -20 -17 -122 -17 -113 -1 5 9 4 9 -7 0 -18 -18 -123 -18 -113
0 6 9 4 9 -7 1 -20 -17 -122 -17 -113 -1 5 9 4 9 -7 0 -7 -7 -37 -13 -67 -13
-40 0 -51 3 -46 13 6 9 4 9 -7 1 -20 -17 -122 -17 -113 -1 5 9 4 9 -7 0 -7 -7
-37 -13 -67 -13 -40 0 -51 3 -46 13 6 9 4 9 -7 1 -20 -17 -122 -17 -113 -1 5
9 4 9 -7 0 -7 -7 -37 -13 -67 -13 -40 0 -51 3 -46 13 6 9 4 9 -7 1 -20 -17
-122 -17 -113 -1 5 9 4 9 -7 0 -7 -7 -37 -13 -67 -13 -40 0 -51 3 -46 13 6 9
4 9 -7 1 -20 -17 -122 -17 -113 -1 5 9 4 9 -7 0 -7 -7 -37 -13 -67 -13 -40 0
-51 3 -46 13 6 9 4 9 -7 1 -20 -17 -122 -17 -113 -1 5 9 4 9 -7 0 -7 -7 -37
-13 -67 -13 -40 0 -51 3 -46 13 6 9 4 9 -7 1 -20 -17 -122 -17 -113 -1 5 9 4
9 -7 0 -7 -7 -37 -13 -67 -13 -40 0 -51 3 -46 13 6 9 4 9 -8 -1 -12 -10 -127
-12 -521 -12 -440 1 -505 3 -500 15 5 14 -16 20 -65 18 -9 -1 -10 3 -3 11 7 8
4 12 -10 13 -12 1 -30 12 -41 25 -11 13 -24 22 -29 20 -5 -1 -9 7 -9 18 0 11
-5 19 -12 18 -6 -2 -14 6 -16 17 -2 11 -9 23 -15 27 -6 4 -12 22 -13 40 -3 48
-3 50 -14 43 -5 -3 -10 25 -10 72 -1 110 -2 112 -17 106 -8 -3 -13 -2 -12 3 4
23 -2 45 -11 39 -6 -3 -10 3 -10 14 0 13 -7 21 -17 21 -15 0 -16 2 -3 10 10 7
11 10 2 10 -7 0 -26 15 -43 33 -18 17 -25 23 -18 12 13 -19 13 -19 -7 -2 -11
9 -27 17 -35 17 -12 0 -11 2 1 10 12 7 8 10 -15 11 -41 1 -66 6 -73 15 -4 4 1
4 10 1 10 -3 20 -2 23 3 4 6 -302 10 -834 10 -491 0 -842 -4 -845 -9z m-660
-1626 c-1 -8 -5 -17 -8 -21 -5 -4 -4 16 1 34 3 9 9 -1 7 -13z m6961 -10 c0 -8
-4 -12 -9 -9 -5 3 -6 10 -3 15 9 13 12 11 12 -6z m-73 -810 c-4 -8 -11 -15
-16 -15 -6 0 -5 6 2 15 7 8 14 15 16 15 2 0 1 -7 -2 -15z m-6749 -474 c3 -5 2
-12 -3 -15 -5 -3 -9 1 -9 9 0 17 3 19 12 6z"/>
<path d="M320 5080 c-12 -7 -10 -9 7 -7 12 0 19 5 17 9 -6 10 -6 10 -24 -2z"/>
<path d="M366 5082 c-3 -5 1 -9 9 -9 8 0 12 4 9 9 -3 4 -7 8 -9 8 -2 0 -6 -4
-9 -8z"/>
<path d="M426 5082 c-3 -5 1 -9 9 -9 8 0 12 4 9 9 -3 4 -7 8 -9 8 -2 0 -6 -4
-9 -8z"/>
<path d="M6566 5082 c-3 -5 1 -9 9 -9 8 0 12 4 9 9 -3 4 -7 8 -9 8 -2 0 -6 -4
-9 -8z"/>
<path d="M6606 5082 c-3 -5 1 -9 9 -9 8 0 12 4 9 9 -3 4 -7 8 -9 8 -2 0 -6 -4
-9 -8z"/>
<path d="M6646 5082 c-3 -5 1 -9 9 -9 8 0 12 4 9 9 -3 4 -7 8 -9 8 -2 0 -6 -4
-9 -8z"/>
<path d="M6686 5082 c-3 -5 1 -9 9 -9 8 0 12 4 9 9 -3 4 -7 8 -9 8 -2 0 -6 -4
-9 -8z"/>
<path d="M6803 2955 c0 -8 4 -12 9 -9 5 3 6 10 3 15 -9 13 -12 11 -12 -6z"/>
<path d="M325 1731 c-3 -5 -2 -12 3 -15 5 -3 9 1 9 9 0 17 -3 19 -12 6z"/>
</g>
</svg>
