<svg xmlns="http://www.w3.org/2000/svg" xmlns:xlink="http://www.w3.org/1999/xlink" viewBox="0 0 98 95.62"><defs><style>.cls-1{stroke:#666;stroke-miterlimit:10;fill:url(#Безымянный_градиент_24);}.cls-2{fill:#393939;}.cls-3{fill:#494949;}</style><linearGradient id="Безымянный_градиент_24" x1="49" y1="95.12" x2="49" y2="0.5" gradientUnits="userSpaceOnUse"><stop offset="0" stop-color="#927740"/><stop offset="0.51" stop-color="#c4b37d"/><stop offset="1" stop-color="#927740"/></linearGradient></defs><title>Ресурс 2</title><g id="Слой_2" data-name="Слой 2"><g id="Слой_1-2" data-name="Слой 1"><rect class="cls-1" x="0.5" y="0.5" width="97" height="94.62" rx="16" ry="16"/><path class="cls-2" d="M47.07,4.48,17.4,37.8c-1.26,1.42.28,3.22,2.76,3.22H28.9V88.9a3,3,0,0,0,3.16,2.67H67.61a3,3,0,0,0,3.15-2.67V41H79.5c2.49,0,4-1.8,2.76-3.22L52.59,4.48A4.17,4.17,0,0,0,47.07,4.48Z"/><path class="cls-3" d="M48.17,89.45H65.1a2.69,2.69,0,0,0,2.83-2.51V39.25h7.85c2.23,0,3.61-1.7,2.47-3L52.31,7.31a3.59,3.59,0,0,0-5,0"/></g></g></svg>